<svg width="360" height="90" viewBox="0 0 360 90" fill="none" xmlns="http://www.w3.org/2000/svg">
<g filter="url(#filter0_d)">
<path fill-rule="evenodd" clip-rule="evenodd" d="M51.346 53.5938H40.6336V69.4844H51.2764C62.4062 69.4844 68.6977 82 68.6977 82H0V84H360V82H87C87 82 86.6599 74.5938 83.8311 70.4688C81.0486 66.3438 76.8054 63.25 71.1014 61.1875C75.6924 59.0781 79.4024 56.0547 82.2312 52.1172C85.06 48.1797 86.4744 43.8672 86.4744 39.1797C86.4744 30.0859 83.4369 22.9609 77.3619 17.8047C71.2869 12.6016 62.8932 10 52.1807 10C46.013 10 40.3553 11.1953 35.2078 13.5859C30.1066 15.9766 26.1184 19.3047 23.2432 23.5703C20.4144 27.7891 19 32.5703 19 37.9141H39.1032C39.1032 34.4922 40.4017 31.7266 42.9986 29.6172C45.5956 27.4609 48.8186 26.3828 52.6677 26.3828C56.9341 26.3828 60.273 27.5312 62.6845 29.8281C65.1423 32.125 66.3712 35.3359 66.3712 39.4609C66.3712 43.7266 65.1423 47.1484 62.6845 49.7266C60.2266 52.3047 56.4471 53.5938 51.346 53.5938Z" fill="#FAFAFB"/>
</g>
<defs>
<filter id="filter0_d" x="-4" y="0" width="376" height="90" filterUnits="userSpaceOnUse" color-interpolation-filters="sRGB">
<feFlood flood-opacity="0" result="BackgroundImageFix"/>
<feColorMatrix in="SourceAlpha" type="matrix" values="0 0 0 0 0 0 0 0 0 0 0 0 0 0 0 0 0 0 127 0"/>
<feOffset dx="4" dy="-2"/>
<feGaussianBlur stdDeviation="4"/>
<feColorMatrix type="matrix" values="0 0 0 0 0 0 0 0 0 0 0 0 0 0 0 0 0 0 0.2 0"/>
<feBlend mode="normal" in2="BackgroundImageFix" result="effect1_dropShadow"/>
<feBlend mode="normal" in="SourceGraphic" in2="effect1_dropShadow" result="shape"/>
</filter>
</defs>
</svg>
