<svg width="17" height="28" viewBox="0 0 17 28" fill="none" xmlns="http://www.w3.org/2000/svg">
<path d="M14.3319 9.33329H16.9985C16.9985 5.55063 13.3252 3.82529 10.3319 3.42796V0.666626H7.6652V3.42796C4.67187 3.82529 0.998535 5.55063 0.998535 9.33329C0.998535 12.9413 4.5532 14.8173 7.6652 15.24V21.8666C5.73453 21.532 3.6652 20.5013 3.6652 18.6666H0.998535C0.998535 22.1186 4.23187 24.1586 7.6652 24.5813V27.3333H10.3319V24.5733C13.3252 24.176 16.9985 22.4493 16.9985 18.6666C16.9985 14.884 13.3252 13.1586 10.3319 12.7613V6.13329C12.1052 6.45196 14.3319 7.38796 14.3319 9.33329ZM3.6652 9.33329C3.6652 7.38796 5.89187 6.45196 7.6652 6.13329V12.532C5.8372 12.1946 3.6652 11.196 3.6652 9.33329ZM14.3319 18.6666C14.3319 20.612 12.1052 21.548 10.3319 21.8666V15.4666C12.1052 15.7853 14.3319 16.7213 14.3319 18.6666Z" fill="#FAFAFB"/>
</svg>
