<svg width="48" height="32" viewBox="0 0 48 32" fill="none" xmlns="http://www.w3.org/2000/svg">
<rect width="48" height="32" rx="8" fill="#FF3366" fill-opacity="0.9"/>
<path d="M17.5999 13.6C17.6001 12.5432 17.949 11.5161 18.5926 10.6778C19.2361 9.83962 20.1383 9.23721 21.1591 8.96404C22.18 8.69088 23.2624 8.76223 24.2386 9.16704C25.2147 9.57184 26.03 10.2875 26.558 11.2029C27.0859 12.1183 27.297 13.1824 27.1585 14.2301C27.02 15.2777 26.5396 16.2504 25.7919 16.9971C25.0442 17.7439 24.0709 18.2231 23.0231 18.3603C21.9753 18.4975 20.9115 18.2851 19.9967 17.756L18.1263 18.38C18.0572 18.403 17.9831 18.4068 17.912 18.3909C17.8409 18.3749 17.7755 18.3398 17.7229 18.2894C17.6703 18.2391 17.6325 18.1753 17.6135 18.1049C17.5945 18.0346 17.595 17.9604 17.6151 17.8904L18.1847 15.8976C17.7999 15.193 17.5988 14.4028 17.5999 13.6ZM21.1999 12.4C21.0938 12.4 20.9921 12.4421 20.917 12.5171C20.842 12.5921 20.7999 12.6939 20.7999 12.8C20.7999 12.9061 20.842 13.0078 20.917 13.0828C20.9921 13.1578 21.0938 13.2 21.1999 13.2H23.5999C23.706 13.2 23.8077 13.1578 23.8827 13.0828C23.9577 13.0078 23.9999 12.9061 23.9999 12.8C23.9999 12.6939 23.9577 12.5921 23.8827 12.5171C23.8077 12.4421 23.706 12.4 23.5999 12.4H21.1999ZM22.7999 14H21.1999C21.0938 14 20.9921 14.0421 20.917 14.1171C20.842 14.1921 20.7999 14.2939 20.7999 14.4C20.7999 14.5061 20.842 14.6078 20.917 14.6828C20.9921 14.7578 21.0938 14.8 21.1999 14.8H22.7999C22.906 14.8 23.0077 14.7578 23.0827 14.6828C23.1577 14.6078 23.1999 14.5061 23.1999 14.4C23.1999 14.2939 23.1577 14.1921 23.0827 14.1171C23.0077 14.0421 22.906 14 22.7999 14Z" fill="#FAFAFB"/>
<path d="M25.8207 19.9576L23.8991 18.9976C24.2511 18.8992 24.5895 18.768 24.9095 18.6072L25.9999 19.1528L29.5999 17.3528V16.8C29.5999 16.5878 29.5156 16.3843 29.3655 16.2343C29.2155 16.0842 29.012 16 28.7999 16H27.4607C27.5831 15.744 27.6855 15.476 27.7679 15.2H28.7999C29.2242 15.2 29.6312 15.3685 29.9312 15.6686C30.2313 15.9686 30.3999 16.3756 30.3999 16.8V20.8C30.3999 21.2243 30.2313 21.6313 29.9312 21.9313C29.6312 22.2314 29.2242 22.4 28.7999 22.4H23.1999C22.7755 22.4 22.3685 22.2314 22.0685 21.9313C21.7684 21.6313 21.5999 21.2243 21.5999 20.8V19.144C21.8615 19.1808 22.1279 19.2 22.3999 19.2V20.8C22.3999 21.0121 22.4841 21.2156 22.6342 21.3656C22.7842 21.5157 22.9877 21.6 23.1999 21.6H28.7999C29.012 21.6 29.2155 21.5157 29.3655 21.3656C29.5156 21.2156 29.5999 21.0121 29.5999 20.8V18.2472L26.1791 19.9576C26.1234 19.9854 26.0621 19.9999 25.9999 19.9999C25.9376 19.9999 25.8763 19.9854 25.8207 19.9576Z" fill="#FAFAFB"/>
<path d="M17.5999 13.6C17.6001 12.5432 17.949 11.5161 18.5926 10.6778C19.2361 9.83962 20.1383 9.23721 21.1591 8.96404C22.18 8.69088 23.2624 8.76223 24.2386 9.16704C25.2147 9.57184 26.03 10.2875 26.558 11.2029C27.0859 12.1183 27.297 13.1824 27.1585 14.2301C27.02 15.2777 26.5396 16.2504 25.7919 16.9971C25.0442 17.7439 24.0709 18.2231 23.0231 18.3603C21.9753 18.4975 20.9115 18.2851 19.9967 17.756L18.1263 18.38C18.0572 18.403 17.9831 18.4068 17.912 18.3909C17.8409 18.3749 17.7755 18.3398 17.7229 18.2894C17.6703 18.2391 17.6325 18.1753 17.6135 18.1049C17.5945 18.0346 17.595 17.9604 17.6151 17.8904L18.1847 15.8976C17.7999 15.193 17.5988 14.4028 17.5999 13.6ZM21.1999 12.4C21.0938 12.4 20.9921 12.4421 20.917 12.5171C20.842 12.5921 20.7999 12.6939 20.7999 12.8C20.7999 12.9061 20.842 13.0078 20.917 13.0828C20.9921 13.1578 21.0938 13.2 21.1999 13.2H23.5999C23.706 13.2 23.8077 13.1578 23.8827 13.0828C23.9577 13.0078 23.9999 12.9061 23.9999 12.8C23.9999 12.6939 23.9577 12.5921 23.8827 12.5171C23.8077 12.4421 23.706 12.4 23.5999 12.4H21.1999ZM22.7999 14H21.1999C21.0938 14 20.9921 14.0421 20.917 14.1171C20.842 14.1921 20.7999 14.2939 20.7999 14.4C20.7999 14.5061 20.842 14.6078 20.917 14.6828C20.9921 14.7578 21.0938 14.8 21.1999 14.8H22.7999C22.906 14.8 23.0077 14.7578 23.0827 14.6828C23.1577 14.6078 23.1999 14.5061 23.1999 14.4C23.1999 14.2939 23.1577 14.1921 23.0827 14.1171C23.0077 14.0421 22.906 14 22.7999 14Z" fill="#FAFAFB"/>
<path d="M25.8207 19.9576L23.8991 18.9976C24.2511 18.8992 24.5895 18.768 24.9095 18.6072L25.9999 19.1528L29.5999 17.3528V16.8C29.5999 16.5878 29.5156 16.3843 29.3655 16.2343C29.2155 16.0842 29.012 16 28.7999 16H27.4607C27.5831 15.744 27.6855 15.476 27.7679 15.2H28.7999C29.2242 15.2 29.6312 15.3685 29.9312 15.6686C30.2313 15.9686 30.3999 16.3756 30.3999 16.8V20.8C30.3999 21.2243 30.2313 21.6313 29.9312 21.9313C29.6312 22.2314 29.2242 22.4 28.7999 22.4H23.1999C22.7755 22.4 22.3685 22.2314 22.0685 21.9313C21.7684 21.6313 21.5999 21.2243 21.5999 20.8V19.144C21.8615 19.1808 22.1279 19.2 22.3999 19.2V20.8C22.3999 21.0121 22.4841 21.2156 22.6342 21.3656C22.7842 21.5157 22.9877 21.6 23.1999 21.6H28.7999C29.012 21.6 29.2155 21.5157 29.3655 21.3656C29.5156 21.2156 29.5999 21.0121 29.5999 20.8V18.2472L26.1791 19.9576C26.1234 19.9854 26.0621 19.9999 25.9999 19.9999C25.9376 19.9999 25.8763 19.9854 25.8207 19.9576Z" fill="#FAFAFB"/>
</svg>
