<svg width="24" height="28" viewBox="0 0 24 28" fill="none" xmlns="http://www.w3.org/2000/svg">
<path fill-rule="evenodd" clip-rule="evenodd" d="M6.66667 3.33329H17.3333V0.666626H20V3.33329H21.3333C22.0406 3.33329 22.7189 3.61424 23.219 4.11434C23.719 4.61444 24 5.29272 24 5.99996V24.6666C24 25.3739 23.719 26.0521 23.219 26.5522C22.7189 27.0523 22.0406 27.3333 21.3333 27.3333H2.66667C1.95942 27.3333 1.28115 27.0523 0.781048 26.5522C0.280951 26.0521 0 25.3739 0 24.6666V5.99996C0 5.29272 0.280951 4.61444 0.781048 4.11434C1.28115 3.61424 1.95942 3.33329 2.66667 3.33329H4V0.666626H6.66667V3.33329ZM2.66667 8.66663V24.6666H21.3333V8.66663H2.66667ZM5.33333 12.6666H8V15.3333H5.33333V12.6666ZM10.6667 12.6666H13.3333V15.3333H10.6667V12.6666ZM16 12.6666H18.6667V15.3333H16V12.6666ZM16 18H18.6667V20.6666H16V18ZM10.6667 18H13.3333V20.6666H10.6667V18ZM5.33333 18H8V20.6666H5.33333V18Z" fill="#FAFAFB"/>
</svg>
