<svg width="32" height="32" viewBox="0 0 32 32" fill="none" xmlns="http://www.w3.org/2000/svg">
<path d="M17.4219 16L27.5005 26.0932C27.8886 26.4819 27.8884 27.1116 27.5 27.5C27.1116 27.8884 26.4819 27.8886 26.0932 27.5005L16 17.4219L5.90676 27.5005C5.51807 27.8886 4.88841 27.8884 4.5 27.5C4.11159 27.1116 4.11136 26.4819 4.49949 26.0932L14.5781 16L4.49949 5.90676C4.11136 5.51807 4.11159 4.88841 4.5 4.5C4.88841 4.11159 5.51807 4.11136 5.90676 4.49949L16 14.5781L26.0932 4.49949C26.4819 4.11136 27.1116 4.11159 27.5 4.5C27.8884 4.88841 27.8886 5.51807 27.5005 5.90676L17.4219 16Z" fill="#CB99FC"/>
</svg>
