<svg width="202" height="202" viewBox="0 0 202 202" fill="none" xmlns="http://www.w3.org/2000/svg">
<path d="M102.612 181.006C102.479 181.073 102.232 181.208 101.974 181.432H101.74L101.516 181.656H101.292L101.068 181.88C101.045 181.88 101.022 181.88 101 181.88C100.883 181.88 100.802 181.88 100.726 181.878C100.688 181.876 100.657 181.875 100.632 181.873C100.626 181.872 100.621 181.872 100.616 181.872C100.445 181.759 100.274 181.674 100.111 181.61C99.9973 181.538 99.9 181.486 99.8325 181.452L99.3644 180.984H99.1956C99.1945 180.982 99.1933 180.98 99.192 180.979L99.1846 180.967C99.1333 180.89 99.0578 180.777 98.9774 180.667C98.9315 180.604 98.8718 180.524 98.7995 180.438L47.3705 97.7041L47.3537 97.6771L47.3361 97.6506C46.8877 96.9781 46.8493 95.9748 47.2234 95.2016L75.4277 43.4937L75.9145 42.6014L75.4806 41.6823L58.4566 5.61826L58.4469 5.59781L58.4368 5.57758C58.0524 4.80874 58.0779 4.0126 58.536 3.32541C59.0437 2.564 59.7486 2.20001 60.68 2.20001H141.32C142.432 2.20001 143.123 2.67748 143.339 3.11044C143.84 4.11163 143.859 4.98547 143.563 5.57759L143.553 5.59781L143.543 5.61826L126.519 41.6823L126.087 42.5976L126.569 43.4878L154.551 95.1992C154.927 95.9727 154.889 96.9774 154.44 97.6506L154.422 97.6771L154.405 97.7041L102.885 180.584L102.836 180.663L102.795 180.746C102.746 180.843 102.71 180.892 102.686 180.923C102.667 180.946 102.647 180.969 102.612 181.006ZM101.163 185.88C152.817 185.792 194.84 143.714 194.84 92.04C194.84 90.6806 195.961 89.56 197.32 89.56C198.679 89.56 199.8 90.6806 199.8 92.04C199.8 131.989 175.875 166.465 141.611 182.06L142.44 185.88H174.92H176.92V183.88V179.4C176.92 178.041 178.041 176.92 179.4 176.92H197.32C198.679 176.92 199.8 178.041 199.8 179.4V197.32C199.8 198.679 198.679 199.8 197.32 199.8H179.4C178.041 199.8 176.92 198.679 176.92 197.32V192.84V190.84H174.92H27.08H25.08V192.84V197.32C25.08 198.679 23.9594 199.8 22.6 199.8H4.67995C3.32053 199.8 2.19995 198.679 2.19995 197.32V179.4C2.19995 178.041 3.32052 176.92 4.67995 176.92H22.6C23.9594 176.92 25.08 178.041 25.08 179.4V183.88V185.88H27.08H59.56L60.3884 182.06C26.1252 166.465 2.19995 131.989 2.19995 92.04C2.19995 90.6806 3.32052 89.56 4.67995 89.56C6.03938 89.56 7.15995 90.6806 7.15995 92.04C7.15995 143.676 49.121 185.729 100.723 185.88C100.801 185.881 100.872 185.88 100.933 185.88C100.957 185.88 100.979 185.88 101 185.88L101.037 185.88C101.074 185.88 101.116 185.88 101.163 185.88ZM67.848 7.16001H64.7003L66.0374 10.0096L79.7014 39.1296L80.2412 40.28H81.5119H120.712H121.983L122.523 39.1296L136.187 10.0096L137.524 7.16001H134.376H67.848ZM94.8211 164.775L98.52 170.729V163.72V107.048V105.575L97.1127 105.138C91.3988 103.365 87.32 98.2758 87.32 92.04C87.32 84.4086 93.3685 78.36 101 78.36C108.631 78.36 114.68 84.4086 114.68 92.04C114.68 98.2758 110.601 103.365 104.887 105.138L103.48 105.575V107.048V163.72V170.729L107.179 164.775L149.067 97.3514L149.681 96.3633L149.125 95.3411L122.469 46.2851L121.901 45.24H120.712H81.288H80.0985L79.5306 46.2851L52.8746 95.3411L52.3192 96.3633L52.9331 97.3514L94.8211 164.775ZM18.12 194.84H20.12V192.84V183.88V181.88H18.12H9.15995H7.15995V183.88V192.84V194.84H9.15995H18.12ZM192.84 194.84H194.84V192.84V183.88V181.88H192.84H183.88H181.88V183.88V192.84V194.84H183.88H192.84ZM101 83.32C96.0874 83.32 92.28 87.1274 92.28 92.04C92.28 96.685 96.0443 100.76 101 100.76C105.956 100.76 109.72 96.685 109.72 92.04C109.72 87.1274 105.913 83.32 101 83.32Z" fill="#00FF40" stroke="#6600C7" stroke-width="4"/>
</svg>
