<svg width="256" height="60" viewBox="0 0 256 60" fill="none" xmlns="http://www.w3.org/2000/svg">
<rect width="256" height="60" rx="3" fill="#F9F9F9"/>
<path d="M70 0H253C254.657 0 256 1.34315 256 3V57C256 58.6569 254.657 60 253 60H70V0Z" fill="#4A90E2"/>
<path d="M87.7627 40.2168V43H86.8252V35.8906H89.4473C90.2253 35.8906 90.834 36.0892 91.2734 36.4863C91.7161 36.8835 91.9375 37.4092 91.9375 38.0635C91.9375 38.7536 91.721 39.2858 91.2881 39.6602C90.8584 40.0312 90.2415 40.2168 89.4375 40.2168H87.7627ZM87.7627 39.4502H89.4473C89.9486 39.4502 90.3327 39.333 90.5996 39.0986C90.8665 38.861 91 38.5192 91 38.0732C91 37.6501 90.8665 37.3115 90.5996 37.0576C90.3327 36.8037 89.9665 36.6719 89.501 36.6621H87.7627V39.4502ZM95.4459 38.5273C95.3092 38.5046 95.1611 38.4932 95.0016 38.4932C94.4091 38.4932 94.0071 38.7454 93.7955 39.25V43H92.8922V37.7168H93.7711L93.7857 38.3271C94.082 37.8551 94.5019 37.6191 95.0455 37.6191C95.2213 37.6191 95.3548 37.6419 95.4459 37.6875V38.5273ZM97.1623 43H96.259V37.7168H97.1623V43ZM96.1857 36.3154C96.1857 36.1689 96.2297 36.0452 96.3176 35.9443C96.4087 35.8434 96.5422 35.793 96.718 35.793C96.8938 35.793 97.0272 35.8434 97.1184 35.9443C97.2095 36.0452 97.2551 36.1689 97.2551 36.3154C97.2551 36.4619 97.2095 36.584 97.1184 36.6816C97.0272 36.7793 96.8938 36.8281 96.718 36.8281C96.5422 36.8281 96.4087 36.7793 96.3176 36.6816C96.2297 36.584 96.1857 36.4619 96.1857 36.3154ZM100.256 41.7744L101.564 37.7168H102.487L100.593 43H99.9041L97.99 37.7168H98.9129L100.256 41.7744ZM106.44 43C106.388 42.8958 106.345 42.7103 106.313 42.4434C105.893 42.8796 105.392 43.0977 104.809 43.0977C104.288 43.0977 103.86 42.9512 103.525 42.6582C103.193 42.362 103.027 41.9876 103.027 41.5352C103.027 40.985 103.235 40.5586 103.652 40.2559C104.072 39.9499 104.661 39.7969 105.419 39.7969H106.298V39.3818C106.298 39.0661 106.204 38.8154 106.015 38.6299C105.826 38.4411 105.548 38.3467 105.18 38.3467C104.858 38.3467 104.588 38.4281 104.37 38.5908C104.151 38.7536 104.042 38.9505 104.042 39.1816H103.134C103.134 38.918 103.227 38.6641 103.413 38.4199C103.601 38.1725 103.855 37.9772 104.174 37.834C104.496 37.6908 104.85 37.6191 105.234 37.6191C105.843 37.6191 106.319 37.7721 106.664 38.0781C107.01 38.3809 107.189 38.7992 107.202 39.333V41.7646C107.202 42.2497 107.263 42.6354 107.387 42.9219V43H106.44ZM104.941 42.3115C105.224 42.3115 105.493 42.2383 105.746 42.0918C106 41.9453 106.184 41.7549 106.298 41.5205V40.4365H105.59C104.483 40.4365 103.93 40.7604 103.93 41.4082C103.93 41.6914 104.024 41.9128 104.213 42.0723C104.402 42.2318 104.645 42.3115 104.941 42.3115ZM110.637 42.3604C110.959 42.3604 111.241 42.2627 111.481 42.0674C111.722 41.8721 111.856 41.6279 111.882 41.335H112.736C112.72 41.6377 112.616 41.9258 112.424 42.1992C112.232 42.4727 111.975 42.6908 111.652 42.8535C111.333 43.0163 110.995 43.0977 110.637 43.0977C109.917 43.0977 109.344 42.8584 108.918 42.3799C108.495 41.8981 108.283 41.2406 108.283 40.4072V40.2559C108.283 39.7415 108.378 39.2842 108.566 38.8838C108.755 38.4834 109.025 38.1725 109.377 37.9512C109.732 37.7298 110.15 37.6191 110.632 37.6191C111.224 37.6191 111.716 37.7965 112.106 38.1514C112.5 38.5062 112.71 38.9668 112.736 39.5332H111.882C111.856 39.1914 111.726 38.9115 111.491 38.6934C111.26 38.472 110.974 38.3613 110.632 38.3613C110.173 38.3613 109.816 38.5273 109.562 38.8594C109.312 39.1882 109.187 39.665 109.187 40.29V40.4609C109.187 41.0697 109.312 41.5384 109.562 41.8672C109.813 42.196 110.171 42.3604 110.637 42.3604ZM115.38 41.6768L116.611 37.7168H117.578L115.454 43.8154C115.125 44.6943 114.602 45.1338 113.886 45.1338L113.715 45.1191L113.379 45.0557V44.3232L113.623 44.3428C113.929 44.3428 114.166 44.2809 114.336 44.1572C114.508 44.0335 114.65 43.8073 114.76 43.4785L114.961 42.9414L113.076 37.7168H114.062L115.38 41.6768ZM122.549 40.3486H120.166V39.6113H122.549V40.3486ZM130.571 36.6621H128.286V43H127.354V36.6621H125.073V35.8906H130.571V36.6621ZM133.088 43.0977C132.372 43.0977 131.79 42.8633 131.34 42.3945C130.891 41.9225 130.667 41.2926 130.667 40.5049V40.3389C130.667 39.8148 130.766 39.3477 130.964 38.9375C131.166 38.5241 131.446 38.2018 131.804 37.9707C132.166 37.7363 132.556 37.6191 132.976 37.6191C133.663 37.6191 134.197 37.8454 134.578 38.2979C134.959 38.7503 135.149 39.3981 135.149 40.2412V40.6172H131.57C131.583 41.138 131.734 41.5596 132.024 41.8818C132.317 42.2008 132.688 42.3604 133.137 42.3604C133.456 42.3604 133.726 42.2952 133.948 42.165C134.169 42.0348 134.363 41.8623 134.529 41.6475L135.081 42.0771C134.638 42.7575 133.974 43.0977 133.088 43.0977ZM132.976 38.3613C132.612 38.3613 132.306 38.4948 132.058 38.7617C131.811 39.0254 131.658 39.3965 131.599 39.875H134.246V39.8066C134.22 39.3477 134.096 38.9928 133.875 38.7422C133.653 38.4883 133.354 38.3613 132.976 38.3613ZM138.653 38.5273C138.516 38.5046 138.368 38.4932 138.208 38.4932C137.616 38.4932 137.214 38.7454 137.002 39.25V43H136.099V37.7168H136.978L136.992 38.3271C137.289 37.8551 137.709 37.6191 138.252 37.6191C138.428 37.6191 138.561 37.6419 138.653 37.6875V38.5273ZM140.237 37.7168L140.262 38.3027C140.649 37.847 141.171 37.6191 141.829 37.6191C142.568 37.6191 143.071 37.9023 143.338 38.4688C143.513 38.2148 143.741 38.0098 144.021 37.8535C144.304 37.6973 144.638 37.6191 145.022 37.6191C146.181 37.6191 146.77 38.2327 146.79 39.46V43H145.887V39.5137C145.887 39.1361 145.8 38.8545 145.628 38.6689C145.455 38.4801 145.165 38.3857 144.759 38.3857C144.423 38.3857 144.145 38.4867 143.924 38.6885C143.702 38.887 143.574 39.1556 143.538 39.4941V43H142.63V39.5381C142.63 38.7699 142.254 38.3857 141.502 38.3857C140.909 38.3857 140.504 38.638 140.286 39.1426V43H139.383V37.7168H140.237ZM151.133 41.5986C151.133 41.3545 151.04 41.1657 150.855 41.0322C150.673 40.8955 150.352 40.7783 149.893 40.6807C149.437 40.583 149.074 40.4658 148.804 40.3291C148.537 40.1924 148.339 40.0296 148.208 39.8408C148.081 39.652 148.018 39.4274 148.018 39.167C148.018 38.734 148.2 38.3678 148.565 38.0684C148.933 37.7689 149.401 37.6191 149.971 37.6191C150.57 37.6191 151.055 37.7738 151.426 38.083C151.801 38.3923 151.988 38.7878 151.988 39.2695H151.079C151.079 39.0221 150.974 38.8089 150.762 38.6299C150.554 38.4508 150.29 38.3613 149.971 38.3613C149.642 38.3613 149.385 38.4329 149.2 38.5762C149.014 38.7194 148.921 38.9066 148.921 39.1377C148.921 39.3558 149.008 39.5202 149.18 39.6309C149.353 39.7415 149.663 39.8473 150.113 39.9482C150.565 40.0492 150.931 40.1696 151.211 40.3096C151.491 40.4495 151.698 40.6188 151.831 40.8174C151.968 41.0127 152.037 41.252 152.037 41.5352C152.037 42.0072 151.848 42.3864 151.47 42.6729C151.093 42.9561 150.603 43.0977 150 43.0977C149.577 43.0977 149.203 43.0228 148.877 42.873C148.552 42.7233 148.296 42.515 148.111 42.248C147.928 41.9779 147.837 41.6865 147.837 41.374H148.741C148.757 41.6768 148.877 41.9176 149.102 42.0967C149.33 42.2725 149.629 42.3604 150 42.3604C150.342 42.3604 150.616 42.292 150.821 42.1553C151.029 42.0153 151.133 41.8298 151.133 41.5986Z" fill="white"/>
<path d="M92.6904 20.6421C92.6904 21.6873 92.4513 22.5295 91.9731 23.1685C91.495 23.8075 90.8475 24.127 90.0308 24.127C89.1971 24.127 88.5412 23.8625 88.063 23.3335V26.6406H86.8887V17.1318H87.9614L88.0186 17.8936C88.4967 17.3011 89.1611 17.0049 90.0117 17.0049C90.8369 17.0049 91.4886 17.3159 91.9668 17.938C92.4492 18.5601 92.6904 19.4255 92.6904 20.5342V20.6421ZM91.5161 20.5088C91.5161 19.7344 91.3511 19.1229 91.021 18.6743C90.6909 18.2257 90.2381 18.0015 89.6626 18.0015C88.9517 18.0015 88.4185 18.3167 88.063 18.9473V22.229C88.4142 22.8553 88.9517 23.1685 89.6753 23.1685C90.2381 23.1685 90.6846 22.9463 91.0146 22.502C91.349 22.0534 91.5161 21.389 91.5161 20.5088ZM97.5083 18.1855C97.3306 18.1559 97.138 18.1411 96.9307 18.1411C96.1605 18.1411 95.6379 18.4691 95.3628 19.125V24H94.1885V17.1318H95.3311L95.3501 17.9253C95.7352 17.3117 96.2811 17.0049 96.9878 17.0049C97.2163 17.0049 97.3898 17.0345 97.5083 17.0938V18.1855ZM98.1558 20.5024C98.1558 19.8296 98.2869 19.2244 98.5493 18.687C98.8159 18.1496 99.1841 17.7349 99.6538 17.4429C100.128 17.1509 100.667 17.0049 101.272 17.0049C102.208 17.0049 102.963 17.3286 103.539 17.9761C104.118 18.6235 104.408 19.4847 104.408 20.5596V20.6421C104.408 21.3107 104.279 21.9116 104.021 22.4448C103.767 22.9738 103.401 23.3864 102.923 23.6826C102.449 23.9788 101.903 24.127 101.285 24.127C100.354 24.127 99.5988 23.8032 99.019 23.1558C98.4435 22.5083 98.1558 21.6514 98.1558 20.585V20.5024ZM99.3364 20.6421C99.3364 21.4038 99.512 22.0153 99.8633 22.4766C100.219 22.9378 100.693 23.1685 101.285 23.1685C101.882 23.1685 102.356 22.9357 102.707 22.4702C103.058 22.0005 103.234 21.3446 103.234 20.5024C103.234 19.7492 103.054 19.1398 102.694 18.6743C102.339 18.2046 101.865 17.9697 101.272 17.9697C100.693 17.9697 100.225 18.2004 99.8696 18.6616C99.5142 19.1229 99.3364 19.783 99.3364 20.6421ZM107.474 15.4688V17.1318H108.756V18.0396H107.474V22.2988C107.474 22.5739 107.531 22.7812 107.646 22.9209C107.76 23.0563 107.954 23.124 108.229 23.124C108.365 23.124 108.551 23.0986 108.788 23.0479V24C108.479 24.0846 108.179 24.127 107.887 24.127C107.362 24.127 106.966 23.9683 106.7 23.6509C106.433 23.3335 106.3 22.8828 106.3 22.2988V18.0396H105.049V17.1318H106.3V15.4688H107.474ZM112.984 24.127C112.053 24.127 111.295 23.8223 110.711 23.2129C110.127 22.5993 109.835 21.7804 109.835 20.7563V20.5405C109.835 19.8592 109.965 19.252 110.223 18.7188C110.485 18.1813 110.849 17.7624 111.314 17.4619C111.784 17.1572 112.292 17.0049 112.838 17.0049C113.731 17.0049 114.425 17.299 114.92 17.8872C115.415 18.4754 115.663 19.3175 115.663 20.4136V20.9023H111.01C111.027 21.5794 111.223 22.1274 111.6 22.5464C111.981 22.9611 112.463 23.1685 113.047 23.1685C113.462 23.1685 113.813 23.0838 114.101 22.9146C114.389 22.7453 114.641 22.521 114.856 22.2417L115.574 22.8003C114.998 23.6847 114.135 24.127 112.984 24.127ZM112.838 17.9697C112.364 17.9697 111.966 18.1432 111.645 18.4902C111.323 18.833 111.124 19.3154 111.048 19.9375H114.488V19.8486C114.454 19.252 114.294 18.7907 114.006 18.4648C113.718 18.1348 113.329 17.9697 112.838 17.9697ZM119.782 23.1685C120.201 23.1685 120.567 23.0415 120.88 22.7876C121.194 22.5337 121.367 22.2163 121.401 21.8354H122.512C122.491 22.229 122.355 22.6035 122.105 22.959C121.856 23.3145 121.521 23.598 121.103 23.8096C120.688 24.0212 120.248 24.127 119.782 24.127C118.847 24.127 118.102 23.8159 117.548 23.1938C116.998 22.5675 116.723 21.7127 116.723 20.6294V20.4326C116.723 19.764 116.845 19.1694 117.091 18.6489C117.336 18.1284 117.688 17.7243 118.145 17.4365C118.606 17.1488 119.15 17.0049 119.776 17.0049C120.546 17.0049 121.185 17.2355 121.693 17.6968C122.205 18.158 122.478 18.7568 122.512 19.4932H121.401C121.367 19.0488 121.198 18.6849 120.893 18.4014C120.593 18.1136 120.22 17.9697 119.776 17.9697C119.179 17.9697 118.716 18.1855 118.386 18.6172C118.06 19.0446 117.897 19.6646 117.897 20.4771V20.6992C117.897 21.4906 118.06 22.0999 118.386 22.5273C118.712 22.9548 119.177 23.1685 119.782 23.1685ZM125.425 15.4688V17.1318H126.708V18.0396H125.425V22.2988C125.425 22.5739 125.482 22.7812 125.597 22.9209C125.711 23.0563 125.906 23.124 126.181 23.124C126.316 23.124 126.502 23.0986 126.739 23.0479V24C126.43 24.0846 126.13 24.127 125.838 24.127C125.313 24.127 124.917 23.9683 124.651 23.6509C124.384 23.3335 124.251 22.8828 124.251 22.2988V18.0396H123V17.1318H124.251V15.4688H125.425ZM130.935 24.127C130.004 24.127 129.247 23.8223 128.663 23.2129C128.079 22.5993 127.787 21.7804 127.787 20.7563V20.5405C127.787 19.8592 127.916 19.252 128.174 18.7188C128.436 18.1813 128.8 17.7624 129.266 17.4619C129.735 17.1572 130.243 17.0049 130.789 17.0049C131.682 17.0049 132.376 17.299 132.871 17.8872C133.366 18.4754 133.614 19.3175 133.614 20.4136V20.9023H128.961C128.978 21.5794 129.175 22.1274 129.551 22.5464C129.932 22.9611 130.415 23.1685 130.999 23.1685C131.413 23.1685 131.764 23.0838 132.052 22.9146C132.34 22.7453 132.592 22.521 132.808 22.2417L133.525 22.8003C132.949 23.6847 132.086 24.127 130.935 24.127ZM130.789 17.9697C130.315 17.9697 129.917 18.1432 129.596 18.4902C129.274 18.833 129.075 19.3154 128.999 19.9375H132.439V19.8486C132.406 19.252 132.245 18.7907 131.957 18.4648C131.669 18.1348 131.28 17.9697 130.789 17.9697ZM134.693 20.5088C134.693 19.4551 134.943 18.6087 135.442 17.9697C135.941 17.3265 136.595 17.0049 137.403 17.0049C138.207 17.0049 138.844 17.2799 139.314 17.8301V14.25H140.488V24H139.409L139.352 23.2637C138.882 23.8392 138.229 24.127 137.391 24.127C136.595 24.127 135.945 23.8011 135.442 23.1494C134.943 22.4977 134.693 21.6471 134.693 20.5977V20.5088ZM135.867 20.6421C135.867 21.4207 136.028 22.0301 136.35 22.4702C136.671 22.9103 137.116 23.1304 137.683 23.1304C138.427 23.1304 138.971 22.7961 139.314 22.1274V18.9727C138.963 18.3252 138.423 18.0015 137.695 18.0015C137.12 18.0015 136.671 18.2236 136.35 18.668C136.028 19.1123 135.867 19.7703 135.867 20.6421ZM151.355 20.6421C151.355 21.6916 151.114 22.5358 150.632 23.1748C150.149 23.8096 149.502 24.127 148.689 24.127C147.822 24.127 147.151 23.8201 146.677 23.2065L146.62 24H145.541V14.25H146.715V17.8872C147.189 17.299 147.843 17.0049 148.677 17.0049C149.51 17.0049 150.164 17.3201 150.638 17.9507C151.116 18.5812 151.355 19.4445 151.355 20.5405V20.6421ZM150.181 20.5088C150.181 19.709 150.027 19.0911 149.718 18.6553C149.409 18.2194 148.965 18.0015 148.385 18.0015C147.61 18.0015 147.054 18.3612 146.715 19.0806V22.0513C147.075 22.7707 147.636 23.1304 148.397 23.1304C148.96 23.1304 149.398 22.9124 149.711 22.4766C150.025 22.0407 150.181 21.3848 150.181 20.5088ZM155.012 22.2798L156.611 17.1318H157.868L155.107 25.0601C154.68 26.2026 154 26.7739 153.069 26.7739L152.847 26.7549L152.409 26.6724V25.7202L152.727 25.7456C153.124 25.7456 153.433 25.6652 153.653 25.5044C153.878 25.3436 154.062 25.0495 154.206 24.6221L154.466 23.9238L152.016 17.1318H153.298L155.012 22.2798ZM165.644 18.541C165.441 18.5072 165.231 18.4902 165.016 18.4902C164.309 18.4902 163.833 18.7611 163.587 19.3027V24H162.045V17.1318H163.518L163.556 17.8999C163.928 17.3032 164.444 17.0049 165.104 17.0049C165.325 17.0049 165.507 17.0345 165.65 17.0938L165.644 18.541ZM169.516 24.127C168.539 24.127 167.745 23.8201 167.136 23.2065C166.531 22.5887 166.228 21.7677 166.228 20.7437V20.5532C166.228 19.8677 166.359 19.2562 166.622 18.7188C166.888 18.1771 167.261 17.756 167.739 17.4556C168.217 17.1551 168.75 17.0049 169.338 17.0049C170.274 17.0049 170.995 17.3032 171.503 17.8999C172.015 18.4966 172.271 19.3408 172.271 20.4326V21.0547H167.783C167.83 21.6217 168.018 22.0703 168.348 22.4004C168.682 22.7305 169.101 22.8955 169.605 22.8955C170.312 22.8955 170.887 22.6099 171.332 22.0386L172.163 22.832C171.888 23.2425 171.52 23.562 171.059 23.7905C170.602 24.0148 170.087 24.127 169.516 24.127ZM169.332 18.2427C168.909 18.2427 168.566 18.3908 168.304 18.687C168.046 18.9832 167.881 19.3958 167.809 19.9248H170.748V19.8105C170.714 19.2943 170.576 18.9049 170.335 18.6426C170.094 18.376 169.759 18.2427 169.332 18.2427ZM180.675 20.9912C180.582 21.9772 180.218 22.7474 179.583 23.3018C178.949 23.8519 178.104 24.127 177.051 24.127C176.314 24.127 175.665 23.9535 175.102 23.6064C174.543 23.2552 174.112 22.758 173.807 22.1147C173.502 21.4715 173.344 20.7246 173.331 19.874V19.0107C173.331 18.139 173.486 17.3709 173.794 16.7065C174.103 16.0422 174.546 15.5301 175.121 15.1704C175.701 14.8107 176.369 14.6309 177.127 14.6309C178.147 14.6309 178.968 14.908 179.59 15.4624C180.212 16.0168 180.574 16.7996 180.675 17.811H179.076C179 17.1466 178.805 16.6685 178.492 16.3765C178.183 16.0802 177.728 15.9321 177.127 15.9321C176.429 15.9321 175.891 16.1882 175.515 16.7002C175.142 17.208 174.952 17.9549 174.943 18.9409V19.7598C174.943 20.7585 175.121 21.5202 175.477 22.0449C175.836 22.5697 176.361 22.832 177.051 22.832C177.681 22.832 178.155 22.6903 178.473 22.4067C178.79 22.1232 178.991 21.6514 179.076 20.9912H180.675ZM187.29 21.8481H183.709L182.96 24H181.291L184.782 14.7578H186.223L189.721 24H188.045L187.29 21.8481ZM184.16 20.5532H186.839L185.5 16.7192L184.16 20.5532ZM192.38 20.5659V24H190.774V14.7578H194.31C195.343 14.7578 196.161 15.0265 196.767 15.564C197.376 16.1014 197.681 16.8123 197.681 17.6968C197.681 18.6024 197.382 19.307 196.786 19.8105C196.193 20.3141 195.362 20.5659 194.291 20.5659H192.38ZM192.38 19.2773H194.31C194.881 19.2773 195.317 19.144 195.618 18.8774C195.918 18.6066 196.068 18.2173 196.068 17.7095C196.068 17.2101 195.916 16.8123 195.611 16.5161C195.307 16.2157 194.888 16.0612 194.354 16.0527H192.38V19.2773ZM205.768 16.0527H202.886V24H201.292V16.0527H198.436V14.7578H205.768V16.0527ZM213.861 20.9912C213.768 21.9772 213.404 22.7474 212.769 23.3018C212.134 23.8519 211.29 24.127 210.236 24.127C209.5 24.127 208.85 23.9535 208.288 23.6064C207.729 23.2552 207.297 22.758 206.993 22.1147C206.688 21.4715 206.529 20.7246 206.517 19.874V19.0107C206.517 18.139 206.671 17.3709 206.98 16.7065C207.289 16.0422 207.731 15.5301 208.307 15.1704C208.886 14.8107 209.555 14.6309 210.312 14.6309C211.332 14.6309 212.153 14.908 212.775 15.4624C213.397 16.0168 213.759 16.7996 213.861 17.811H212.261C212.185 17.1466 211.99 16.6685 211.677 16.3765C211.368 16.0802 210.913 15.9321 210.312 15.9321C209.614 15.9321 209.077 16.1882 208.7 16.7002C208.328 17.208 208.137 17.9549 208.129 18.9409V19.7598C208.129 20.7585 208.307 21.5202 208.662 22.0449C209.022 22.5697 209.547 22.832 210.236 22.832C210.867 22.832 211.341 22.6903 211.658 22.4067C211.976 22.1232 212.177 21.6514 212.261 20.9912H213.861ZM222.64 24H221.04V19.8931H216.908V24H215.302V14.7578H216.908V18.6045H221.04V14.7578H222.64V24ZM229.832 21.8481H226.251L225.502 24H223.833L227.324 14.7578H228.765L232.263 24H230.587L229.832 21.8481ZM226.702 20.5532H229.381L228.042 16.7192L226.702 20.5532Z" fill="white"/>
<mask id="mask0" mask-type="alpha" maskUnits="userSpaceOnUse" x="14" y="9" width="42" height="42">
<path d="M34.9128 9.83337L34.91 9.95132L35.0306 9.95077C41.2319 9.95077 46.778 12.7548 50.4721 17.1627L50.6339 17.3582L55.146 12.8461V29.1672C55.1546 29.358 55.1605 29.5495 55.1637 29.7416L55.1666 30.0303L53.2493 30.012C51.2083 29.9998 48.4178 29.9987 45.3958 30.0039L37.9643 30.0258L43.1995 24.7906C41.5991 22.2789 38.8811 20.5485 35.7455 20.301C35.5721 20.2337 35.3361 20.1979 35.0304 20.1979L34.8869 20.1988L34.8983 24.3033L34.9082 27.0356L29.6788 21.8059C29.5758 21.8792 29.4758 21.9538 29.3789 22.0294C28.2028 22.8532 27.2168 23.9299 26.5 25.1807L26.383 25.3908L26.3461 25.3543C25.7029 26.5285 25.2943 27.8496 25.1834 29.2544C25.1246 29.4062 25.0898 29.6058 25.0821 29.8582L25.0804 29.9696C25.0804 30.0176 25.0807 30.0655 25.0813 30.1131L29.2556 30.1015L32.0365 30.0915L26.8013 35.3266C28.4017 37.8383 31.1197 39.5688 34.2553 39.8163C34.4287 39.8836 34.6647 39.9193 34.9704 39.9193C37.5012 39.9193 39.3307 39.0954 40.6219 38.0878C41.798 37.264 42.784 36.1874 43.5008 34.9366L43.6178 34.7265L51.0137 42.2002C47.3362 47.0408 41.5186 50.1665 34.9701 50.1665C28.7689 50.1665 23.2228 47.3624 19.5287 42.9546L19.3669 42.7591L14.8548 47.2712V30.9501L14.8439 30.6633L14.8365 30.337L14.8341 30.1533L14.8333 29.9693C14.8333 23.768 17.6373 18.222 22.0452 14.5278L22.2407 14.3661L17.7286 9.85397H34.0496C34.3359 9.84101 34.6236 9.83433 34.9128 9.83337Z" fill="white"/>
</mask>
<g mask="url(#mask0)">
<path d="M55.1665 30.0303C55.1656 29.7411 55.1589 29.4535 55.1459 29.1672V12.8461L50.6338 17.3582C46.9409 12.838 41.3231 9.95081 35.0306 9.95081C28.4822 9.95081 22.6646 13.0765 18.9871 17.9171L26.3829 25.3908C27.1077 24.0503 28.1374 22.899 29.3789 22.0294C30.6701 21.0218 32.4996 20.198 35.0304 20.198C35.3361 20.198 35.5721 20.2337 35.7455 20.301C38.8811 20.5485 41.5991 22.279 43.1994 24.7906L37.9643 30.0258C44.5953 29.9998 52.0862 29.9845 55.166 30.0292" fill="#1C3AA9"/>
<g filter="url(#filter0_d)">
<path d="M34.9128 9.83337C34.6236 9.83433 34.3359 9.84101 34.0496 9.85397H17.7286L22.2407 14.3661C17.7204 18.059 14.8333 23.6768 14.8333 29.9693C14.8333 36.5177 17.959 42.3353 22.7996 46.0129L30.2732 38.617C28.9328 37.8922 27.7815 36.8625 26.9119 35.621C25.9043 34.3298 25.0804 32.5003 25.0804 29.9696C25.0804 29.6638 25.1161 29.4278 25.1834 29.2544C25.4309 26.1188 27.1614 23.4008 29.6731 21.8005L34.9082 27.0356C34.8822 20.4046 34.8669 12.9137 34.9116 9.83395" fill="#4285F4"/>
</g>
<g filter="url(#filter1_d)">
<path d="M14.8342 30.0869C14.8352 30.3761 14.8419 30.6638 14.8548 30.95V47.2711L19.3669 42.759C23.0598 47.2793 28.6777 50.1664 34.9702 50.1664C41.5186 50.1664 47.3362 47.0407 51.0137 42.2001L43.6178 34.7264C42.893 36.0669 41.8634 37.2182 40.6219 38.0878C39.3307 39.0954 37.5012 39.9193 34.9704 39.9193C34.6647 39.9193 34.4287 39.8835 34.2553 39.8162C31.1197 39.5687 28.4017 37.8383 26.8013 35.3266L32.0365 30.0914C25.4055 30.1175 17.9145 30.1327 14.8348 30.0881" fill="#ABABAB"/>
</g>
</g>
<defs>
<filter id="filter0_d" x="8.83325" y="3.83337" width="32.0795" height="48.1795" filterUnits="userSpaceOnUse" color-interpolation-filters="sRGB">
<feFlood flood-opacity="0" result="BackgroundImageFix"/>
<feColorMatrix in="SourceAlpha" type="matrix" values="0 0 0 0 0 0 0 0 0 0 0 0 0 0 0 0 0 0 127 0"/>
<feOffset/>
<feGaussianBlur stdDeviation="3"/>
<feColorMatrix type="matrix" values="0 0 0 0 0 0 0 0 0 0 0 0 0 0 0 0 0 0 0.24 0"/>
<feBlend mode="normal" in2="BackgroundImageFix" result="effect1_dropShadow"/>
<feBlend mode="normal" in="SourceGraphic" in2="effect1_dropShadow" result="shape"/>
</filter>
<filter id="filter1_d" x="8.83423" y="24.0869" width="48.1795" height="32.0795" filterUnits="userSpaceOnUse" color-interpolation-filters="sRGB">
<feFlood flood-opacity="0" result="BackgroundImageFix"/>
<feColorMatrix in="SourceAlpha" type="matrix" values="0 0 0 0 0 0 0 0 0 0 0 0 0 0 0 0 0 0 127 0"/>
<feOffset/>
<feGaussianBlur stdDeviation="3"/>
<feColorMatrix type="matrix" values="0 0 0 0 0 0 0 0 0 0 0 0 0 0 0 0 0 0 0.24 0"/>
<feBlend mode="normal" in2="BackgroundImageFix" result="effect1_dropShadow"/>
<feBlend mode="normal" in="SourceGraphic" in2="effect1_dropShadow" result="shape"/>
</filter>
</defs>
</svg>
