<svg width="184" height="48" viewBox="0 0 184 48" fill="none" xmlns="http://www.w3.org/2000/svg">
<path opacity="0.5" fill-rule="evenodd" clip-rule="evenodd" d="M184 8V40C184 42.1217 183.157 44.1566 181.657 45.6569C180.157 47.1571 178.122 48 176 48L8 48C5.87827 48 3.84344 47.1571 2.34315 45.6569C0.842855 44.1566 0 42.1217 0 40L0 8C0 5.87827 0.842855 3.84344 2.34315 2.34315C3.84344 0.842857 5.87827 0 8 0L176 0C178.122 0 180.157 0.842857 181.657 2.34315C183.157 3.84344 184 5.87827 184 8ZM170 22C170.53 22 171.039 22.2107 171.414 22.5858C171.789 22.9609 172 23.4696 172 24C172 24.5304 171.789 25.0391 171.414 25.4142C171.039 25.7893 170.53 26 170 26L18.828 26L27.416 34.584C27.7915 34.9595 28.0025 35.4689 28.0025 36C28.0025 36.5311 27.7915 37.0405 27.416 37.416C27.0405 37.7915 26.5311 38.0025 26 38.0025C25.4689 38.0025 24.9595 37.7915 24.584 37.416L12.584 25.416C12.3977 25.2302 12.25 25.0095 12.1491 24.7665C12.0483 24.5236 11.9964 24.2631 11.9964 24C11.9964 23.7369 12.0483 23.4764 12.1491 23.2335C12.25 22.9905 12.3977 22.7698 12.584 22.584L24.584 10.584C24.9595 10.2085 25.4689 9.99747 26 9.99747C26.5311 9.99747 27.0405 10.2085 27.416 10.584C27.7915 10.9595 28.0025 11.4689 28.0025 12C28.0025 12.5311 27.7915 13.0405 27.416 13.416L18.828 22L170 22Z" fill="#CB99FC"/>
</svg>
