<svg width="22" height="20" viewBox="0 0 22 20" fill="none" xmlns="http://www.w3.org/2000/svg">
<path d="M10.5632 4.15075C12.1547 4.15075 13.6544 4.85628 14.7534 5.95921V5.96246C14.7534 5.43282 15.1097 5.03217 15.6022 5.03217H15.7273C16.5045 5.03217 16.6602 5.76507 16.6602 5.99634L16.6635 14.2276C16.6094 14.767 17.2205 15.0458 17.5599 14.6992C18.8791 13.3422 20.4602 7.7162 16.7384 4.45889C13.2674 1.41851 8.6088 1.92079 6.13194 3.62762C3.49938 5.44651 1.81665 9.46407 3.45117 13.2399C5.23618 17.3565 10.3391 18.5845 13.3762 17.3598C14.9136 16.739 15.6224 18.8145 14.0244 19.494C11.6159 20.5213 4.90393 20.4165 1.76909 14.9878C-0.34881 11.3207 -0.236758 4.86996 5.38276 1.52796C9.67785 -1.03033 15.3449 -0.321542 18.7612 3.24521C22.3312 6.97744 22.1247 13.9605 18.6394 16.6751C17.0609 17.9096 14.7169 16.709 14.7338 14.9103L14.7163 14.324C13.6172 15.4126 12.1547 16.051 10.5632 16.051C7.41467 16.051 4.64269 13.2784 4.64269 10.1331C4.64269 6.95399 7.41467 4.15205 10.5632 4.15205V4.15075ZM14.5234 9.90576C14.4042 7.60154 12.6941 6.21393 10.6277 6.21393H10.5495C8.16776 6.21393 6.84464 8.09014 6.84464 10.2172C6.84464 12.6022 8.44267 14.1083 10.5397 14.1083C12.8804 14.1083 14.4172 12.3957 14.5293 10.3696L14.5234 9.90576Z" fill="#FAFAFB"/>
</svg>
