<svg width="28" height="28" viewBox="0 0 28 28" fill="none" xmlns="http://www.w3.org/2000/svg">
<path d="M13.4176 6.20095C15.5396 6.20095 17.5392 7.14167 19.0045 8.61223V8.61658C19.0045 7.91039 19.4797 7.37619 20.1363 7.37619H20.3031C21.3394 7.37619 21.547 8.35339 21.547 8.66175L21.5513 19.6367C21.4792 20.3559 22.294 20.7277 22.7465 20.2656C24.5055 18.4563 26.6136 10.9549 21.6512 6.61181C17.0232 2.55798 10.8117 3.22768 7.50925 5.50346C3.99917 7.92863 1.75553 13.2854 3.93489 18.3199C6.3149 23.8087 13.1188 25.446 17.1683 23.813C19.2182 22.9852 20.1633 25.7526 18.0325 26.6586C14.8213 28.0284 5.87191 27.8886 1.69213 20.6504C-1.13175 15.7609 -0.982345 7.15991 6.51034 2.7039C12.2371 -0.707152 19.7932 0.237903 24.3482 4.99358C29.1083 9.96988 28.8329 19.2806 24.1858 22.9001C22.0812 24.5461 18.9559 22.9453 18.9785 20.547L18.955 19.7653C17.4897 21.2167 15.5396 22.068 13.4176 22.068C9.21955 22.068 5.52359 18.3711 5.52359 14.1775C5.52359 9.93861 9.21955 6.20269 13.4176 6.20269V6.20095ZM18.6979 13.8743C18.5389 10.802 16.2588 8.95186 13.5036 8.95186H13.3993C10.2237 8.95186 8.45952 11.4535 8.45952 14.2895C8.45952 17.4695 10.5902 19.4778 13.3863 19.4778C16.5072 19.4778 18.5563 17.1942 18.7057 14.4928L18.6979 13.8743Z" fill="#FAFAFB"/>
</svg>
