<svg width="32" height="32" viewBox="0 0 32 32" fill="none" xmlns="http://www.w3.org/2000/svg">
<path d="M16.0001 24C16.2813 24 16.5417 24.0521 16.7813 24.1562C17.0209 24.2604 17.2292 24.401 17.4063 24.5781C17.5834 24.7552 17.7292 24.9687 17.8438 25.2187C17.9584 25.4687 18.0105 25.7291 18.0001 26C18.0001 26.2812 17.948 26.5416 17.8438 26.7812C17.7397 27.0208 17.599 27.2291 17.422 27.4062C17.2449 27.5833 17.0313 27.7291 16.7813 27.8437C16.5313 27.9583 16.2709 28.0104 16.0001 28C15.7188 28 15.4584 27.9479 15.2188 27.8437C14.9792 27.7396 14.7709 27.5989 14.5938 27.4219C14.4167 27.2448 14.2709 27.0312 14.1563 26.7812C14.0417 26.5312 13.9897 26.2708 14.0001 26C14.0001 25.7187 14.0522 25.4583 14.1563 25.2187C14.2605 24.9791 14.4011 24.7708 14.5782 24.5937C14.7553 24.4166 14.9688 24.2708 15.2188 24.1562C15.4688 24.0416 15.7292 23.9896 16.0001 24ZM16.0001 14C16.2813 14 16.5417 14.052 16.7813 14.1562C17.0209 14.2604 17.2292 14.401 17.4063 14.5781C17.5834 14.7552 17.7292 14.9687 17.8438 15.2187C17.9584 15.4687 18.0105 15.7291 18.0001 16C18.0001 16.2812 17.948 16.5416 17.8438 16.7812C17.7397 17.0208 17.599 17.2291 17.422 17.4062C17.2449 17.5833 17.0313 17.7291 16.7813 17.8437C16.5313 17.9583 16.2709 18.0104 16.0001 18C15.7188 18 15.4584 17.9479 15.2188 17.8437C14.9792 17.7396 14.7709 17.5989 14.5938 17.4218C14.4167 17.2448 14.2709 17.0312 14.1563 16.7812C14.0417 16.5312 13.9897 16.2708 14.0001 16C14.0001 15.7187 14.0522 15.4583 14.1563 15.2187C14.2605 14.9791 14.4011 14.7708 14.5782 14.5937C14.7553 14.4166 14.9688 14.2708 15.2188 14.1562C15.4688 14.0416 15.7292 13.9895 16.0001 14ZM16.0001 7.99996C15.7188 7.99996 15.4584 7.94788 15.2188 7.84371C14.9792 7.73955 14.7709 7.59892 14.5938 7.42184C14.4167 7.24475 14.2709 7.03121 14.1563 6.78121C14.0417 6.53121 13.9897 6.27079 14.0001 5.99996C14.0001 5.71871 14.0522 5.45829 14.1563 5.21871C14.2605 4.97913 14.4011 4.77079 14.5782 4.59371C14.7553 4.41663 14.9688 4.27079 15.2188 4.15621C15.4688 4.04163 15.7292 3.98954 16.0001 3.99996C16.2813 3.99996 16.5417 4.05204 16.7813 4.15621C17.0209 4.26038 17.2292 4.401 17.4063 4.57808C17.5834 4.75517 17.7292 4.96871 17.8438 5.21871C17.9584 5.46871 18.0105 5.72913 18.0001 5.99996C18.0001 6.28121 17.948 6.54163 17.8438 6.78121C17.7397 7.02079 17.599 7.22913 17.422 7.40621C17.2449 7.58329 17.0313 7.72913 16.7813 7.84371C16.5313 7.9583 16.2709 8.01038 16.0001 7.99996Z" fill="#CB99FC"/>
<rect opacity="0.25" x="0.5" y="0.5" width="31" height="31" rx="7.5" fill="#351747" stroke="#AD34E5"/>
</svg>
