<svg width="180" height="202" viewBox="0 0 180 202" fill="none" xmlns="http://www.w3.org/2000/svg">
<mask id="path-1-inside-1" fill="white">
<path d="M69.8399 94.28H67.1519L43.1839 52.616C40.7199 48.36 36.2399 45.448 31.7599 45V31.56H38.4799C45.6479 31.56 51.4719 26.856 53.4879 20.36H137.04V53.96C137.04 56.424 139.056 58.44 141.52 58.44H148.24V88.008C142.864 88.904 137.712 91.368 133.68 95.4C123.152 105.928 123.152 122.952 133.68 133.48C135.472 135.272 138.16 135.272 139.952 133.48C141.744 131.688 141.744 129 139.952 127.208C133.008 120.264 133.008 108.84 139.952 101.896C146.896 94.952 158.32 94.952 165.264 101.896C172.208 108.84 172.208 120.264 165.264 127.208C163.472 129 163.472 131.688 165.264 133.48C166.16 134.376 167.28 134.824 168.4 134.824C169.52 134.824 170.64 134.376 171.536 133.48C182.064 122.952 182.064 105.928 171.536 95.4C167.504 91.368 162.352 88.904 156.976 88.008V58.44H163.696C166.16 58.44 168.176 56.424 168.176 53.96V15.88C168.176 7.144 161.232 0.200001 152.496 0.200001C145.328 0.200001 139.504 4.904 137.488 11.4H53.4879C51.4719 4.904 45.4239 0.200001 38.4799 0.200001H16.0799C7.3439 0.200001 0.399902 7.144 0.399902 15.88C0.399902 24.616 7.3439 31.56 16.0799 31.56H22.7999V46.344C22.3519 46.568 22.1279 46.792 21.6799 46.792C18.0959 48.808 15.4079 52.392 14.2879 56.2C13.1679 60.232 13.8399 64.488 15.8559 68.072L35.1199 101.448C31.7599 105.704 29.5199 110.856 29.5199 116.68V143.56C29.5199 150.952 35.5679 157 42.9599 157V170.44C35.5679 170.44 29.5199 176.488 29.5199 183.88V197.32C29.5199 199.784 31.5359 201.8 33.9999 201.8H87.7599C90.2239 201.8 92.2399 199.784 92.2399 197.32V183.88C92.2399 176.488 86.1919 170.44 78.7999 170.44V157C86.1919 157 92.2399 150.952 92.2399 143.56V116.68C92.2399 104.36 82.1599 94.28 69.8399 94.28ZM146 15.88C146 12.072 148.912 9.16 152.72 9.16C156.528 9.16 159.44 12.072 159.44 15.88V49.48H146V15.88ZM16.0799 22.6C12.2719 22.6 9.3599 19.464 9.3599 15.88C9.3599 12.072 12.2719 9.16 16.0799 9.16H38.4799C42.2879 9.16 45.1999 12.072 45.1999 15.88C45.1999 19.464 42.2879 22.6 38.4799 22.6H16.0799ZM23.6959 63.816C22.7999 62.248 22.5759 60.456 23.0239 58.664C23.4719 56.872 24.5919 55.528 26.1599 54.632C27.2799 53.96 28.3999 53.736 29.5199 53.736C31.7599 53.736 33.9999 54.856 35.3439 57.096L56.8479 94.28H51.9199C48.5599 94.28 45.4239 94.952 42.5119 96.296L23.6959 63.816ZM83.2799 183.88V192.84H38.4799V183.88C38.4799 181.416 40.4959 179.4 42.9599 179.4H78.7999C81.2639 179.4 83.2799 181.416 83.2799 183.88ZM51.9199 170.44V157H69.8399V170.44H51.9199ZM83.2799 143.56C83.2799 146.024 81.2639 148.04 78.7999 148.04H42.9599C40.4959 148.04 38.4799 146.024 38.4799 143.56V116.68C38.4799 109.288 44.5279 103.24 51.9199 103.24H69.8399C77.2319 103.24 83.2799 109.288 83.2799 116.68V143.56ZM166.16 148.04H139.28C131.888 148.04 125.84 154.088 125.84 161.48V188.36C125.84 195.752 131.888 201.8 139.28 201.8H166.16C173.552 201.8 179.6 195.752 179.6 188.36V161.48C179.6 154.088 173.552 148.04 166.16 148.04ZM170.64 188.36C170.64 190.824 168.624 192.84 166.16 192.84H139.28C136.816 192.84 134.8 190.824 134.8 188.36V161.48C134.8 159.016 136.816 157 139.28 157H148.24V165.96C148.24 168.424 150.256 170.44 152.72 170.44C155.184 170.44 157.2 168.424 157.2 165.96V157H166.16C168.624 157 170.64 159.016 170.64 161.48V188.36Z"/>
</mask>
<path d="M69.8399 94.28H67.1519L43.1839 52.616C40.7199 48.36 36.2399 45.448 31.7599 45V31.56H38.4799C45.6479 31.56 51.4719 26.856 53.4879 20.36H137.04V53.96C137.04 56.424 139.056 58.44 141.52 58.44H148.24V88.008C142.864 88.904 137.712 91.368 133.68 95.4C123.152 105.928 123.152 122.952 133.68 133.48C135.472 135.272 138.16 135.272 139.952 133.48C141.744 131.688 141.744 129 139.952 127.208C133.008 120.264 133.008 108.84 139.952 101.896C146.896 94.952 158.32 94.952 165.264 101.896C172.208 108.84 172.208 120.264 165.264 127.208C163.472 129 163.472 131.688 165.264 133.48C166.16 134.376 167.28 134.824 168.4 134.824C169.52 134.824 170.64 134.376 171.536 133.48C182.064 122.952 182.064 105.928 171.536 95.4C167.504 91.368 162.352 88.904 156.976 88.008V58.44H163.696C166.16 58.44 168.176 56.424 168.176 53.96V15.88C168.176 7.144 161.232 0.200001 152.496 0.200001C145.328 0.200001 139.504 4.904 137.488 11.4H53.4879C51.4719 4.904 45.4239 0.200001 38.4799 0.200001H16.0799C7.3439 0.200001 0.399902 7.144 0.399902 15.88C0.399902 24.616 7.3439 31.56 16.0799 31.56H22.7999V46.344C22.3519 46.568 22.1279 46.792 21.6799 46.792C18.0959 48.808 15.4079 52.392 14.2879 56.2C13.1679 60.232 13.8399 64.488 15.8559 68.072L35.1199 101.448C31.7599 105.704 29.5199 110.856 29.5199 116.68V143.56C29.5199 150.952 35.5679 157 42.9599 157V170.44C35.5679 170.44 29.5199 176.488 29.5199 183.88V197.32C29.5199 199.784 31.5359 201.8 33.9999 201.8H87.7599C90.2239 201.8 92.2399 199.784 92.2399 197.32V183.88C92.2399 176.488 86.1919 170.44 78.7999 170.44V157C86.1919 157 92.2399 150.952 92.2399 143.56V116.68C92.2399 104.36 82.1599 94.28 69.8399 94.28ZM146 15.88C146 12.072 148.912 9.16 152.72 9.16C156.528 9.16 159.44 12.072 159.44 15.88V49.48H146V15.88ZM16.0799 22.6C12.2719 22.6 9.3599 19.464 9.3599 15.88C9.3599 12.072 12.2719 9.16 16.0799 9.16H38.4799C42.2879 9.16 45.1999 12.072 45.1999 15.88C45.1999 19.464 42.2879 22.6 38.4799 22.6H16.0799ZM23.6959 63.816C22.7999 62.248 22.5759 60.456 23.0239 58.664C23.4719 56.872 24.5919 55.528 26.1599 54.632C27.2799 53.96 28.3999 53.736 29.5199 53.736C31.7599 53.736 33.9999 54.856 35.3439 57.096L56.8479 94.28H51.9199C48.5599 94.28 45.4239 94.952 42.5119 96.296L23.6959 63.816ZM83.2799 183.88V192.84H38.4799V183.88C38.4799 181.416 40.4959 179.4 42.9599 179.4H78.7999C81.2639 179.4 83.2799 181.416 83.2799 183.88ZM51.9199 170.44V157H69.8399V170.44H51.9199ZM83.2799 143.56C83.2799 146.024 81.2639 148.04 78.7999 148.04H42.9599C40.4959 148.04 38.4799 146.024 38.4799 143.56V116.68C38.4799 109.288 44.5279 103.24 51.9199 103.24H69.8399C77.2319 103.24 83.2799 109.288 83.2799 116.68V143.56ZM166.16 148.04H139.28C131.888 148.04 125.84 154.088 125.84 161.48V188.36C125.84 195.752 131.888 201.8 139.28 201.8H166.16C173.552 201.8 179.6 195.752 179.6 188.36V161.48C179.6 154.088 173.552 148.04 166.16 148.04ZM170.64 188.36C170.64 190.824 168.624 192.84 166.16 192.84H139.28C136.816 192.84 134.8 190.824 134.8 188.36V161.48C134.8 159.016 136.816 157 139.28 157H148.24V165.96C148.24 168.424 150.256 170.44 152.72 170.44C155.184 170.44 157.2 168.424 157.2 165.96V157H166.16C168.624 157 170.64 159.016 170.64 161.48V188.36Z" fill="#00FF40" stroke="#6600C7" stroke-width="8" mask="url(#path-1-inside-1)"/>
</svg>
