<svg width="48" height="48" viewBox="0 0 48 48" fill="none" xmlns="http://www.w3.org/2000/svg">
<path d="M45.6853 23.6955C45.6217 23.5525 44.0895 20.1533 40.6552 16.719C37.4758 13.539 32.0053 9.74854 24 9.74854C15.9947 9.74854 10.5242 13.539 7.34474 16.719C3.91049 20.1533 2.37823 23.5525 2.31467 23.6955C2.27203 23.7914 2.25 23.8952 2.25 24.0001C2.25 24.1051 2.27203 24.2088 2.31467 24.3047C2.37823 24.4476 3.91067 27.8458 7.34474 31.2795C10.5242 34.4588 15.9949 38.2485 24 38.2485C32.0051 38.2485 37.4758 34.4588 40.6552 31.2795C44.0893 27.8458 45.6217 24.4476 45.6853 24.3045C45.7279 24.2087 45.7499 24.1049 45.7499 24C45.7499 23.8951 45.7279 23.7914 45.6853 23.6955ZM39.5557 30.2578C35.2294 34.5647 29.9957 36.7485 24 36.7485C18.0043 36.7485 12.7706 34.5647 8.44424 30.2578C6.59564 28.4205 5.04042 26.3099 3.83305 24C5.04026 21.6895 6.59556 19.5784 8.44442 17.7405C12.7708 13.4325 18.0043 11.2485 24 11.2485C29.9957 11.2485 35.2292 13.4329 39.5555 17.7405C41.4044 19.5784 42.9597 21.6895 44.1669 24C42.9596 26.31 41.4044 28.4206 39.5557 30.2578ZM24 15.75C22.3683 15.75 20.7732 16.2339 19.4165 17.1404C18.0598 18.0469 17.0024 19.3354 16.378 20.8429C15.7536 22.3504 15.5902 24.0092 15.9085 25.6095C16.2268 27.2099 17.0126 28.6799 18.1664 29.8337C19.3201 30.9874 20.7901 31.7732 22.3905 32.0915C23.9908 32.4098 25.6496 32.2465 27.1571 31.622C28.6646 30.9976 29.9531 29.9402 30.8596 28.5835C31.7661 27.2268 32.25 25.6317 32.25 24C32.2475 21.8128 31.3775 19.7158 29.8309 18.1691C28.2842 16.6225 26.1873 15.7525 24 15.75ZM24 30.75C22.665 30.75 21.3599 30.3542 20.2499 29.6125C19.1399 28.8708 18.2747 27.8165 17.7638 26.5831C17.2529 25.3497 17.1192 23.9925 17.3797 22.6832C17.6401 21.3738 18.283 20.1711 19.227 19.2271C20.171 18.2831 21.3738 17.6402 22.6831 17.3797C23.9925 17.1193 25.3497 17.253 26.5831 17.7638C27.8165 18.2747 28.8707 19.1399 29.6124 20.2499C30.3541 21.36 30.75 22.665 30.75 24C30.748 25.7896 30.0362 27.5054 28.7708 28.7708C27.5053 30.0363 25.7896 30.748 24 30.75Z" fill="#CB99FC" stroke="#CB99FC"/>
</svg>
