<svg width="19" height="25" viewBox="0 0 19 25" fill="none" xmlns="http://www.w3.org/2000/svg">
<path d="M14.9392 24.8203C4.10289 22.3286 -2.02266 11.6947 1.23278 1.08013C1.37582 0.613747 1.82773 0.289925 2.31609 0.291548L7.01534 0.307288C7.26312 0.308105 7.49732 0.393092 7.67699 0.547396C7.85667 0.701701 7.9704 0.915507 7.99831 1.15145L8.60264 6.25991C8.62845 6.47814 8.57937 6.70296 8.4628 6.9005C8.34623 7.09803 8.16849 7.25756 7.95638 7.35504L4.76481 8.82184C5.32165 12.4247 7.21827 15.6547 10.0007 17.8906L12.8668 15.8599C13.0572 15.725 13.2843 15.6508 13.5136 15.6486C13.743 15.6464 13.9622 15.7164 14.1383 15.8478L18.2602 18.9255C18.4506 19.0676 18.5789 19.273 18.6227 19.5058C18.6665 19.7385 18.623 19.9838 18.4998 20.1988L16.1638 24.2764C16.045 24.4837 15.8592 24.6504 15.6368 24.7491C15.4144 24.8479 15.1685 24.873 14.9392 24.8203Z" fill="#FAFAFB"/>
</svg>
