<svg width="10" height="22" viewBox="0 0 10 22" fill="none" xmlns="http://www.w3.org/2000/svg">
<path d="M5.07459 21.2798C-1.0294 15.5978 -1.02033 6.39373 5.07459 0.720187C5.34239 0.470899 5.75735 0.430037 6.07394 0.614224L9.12029 2.38667C9.28092 2.48012 9.40116 2.62314 9.46 2.79074C9.51884 2.95835 9.51254 3.13987 9.44219 3.30358L7.91903 6.84825C7.85397 6.99967 7.73778 7.12729 7.58799 7.21188C7.4382 7.29647 7.26293 7.33343 7.0886 7.31721L4.46557 7.07308C3.47619 9.622 3.49682 12.4312 4.46557 14.9269L7.08865 14.6827C7.26298 14.6665 7.43825 14.7034 7.58804 14.788C7.73782 14.8726 7.85401 15.0002 7.91908 15.1516L9.44223 18.6964C9.51258 18.8601 9.51888 19.0416 9.46004 19.2092C9.4012 19.3768 9.28096 19.5198 9.12034 19.6133L6.07398 21.3857C5.91906 21.4758 5.73591 21.5144 5.55441 21.4952C5.37291 21.4759 5.20377 21.4 5.07459 21.2798Z" fill="#FAFAFB"/>
</svg>
