<svg width="184" height="48" viewBox="0 0 184 48" fill="none" xmlns="http://www.w3.org/2000/svg">
<g opacity="0.5">
<path fill-rule="evenodd" clip-rule="evenodd" d="M0 8V40C0 42.1217 0.84285 44.1566 2.34314 45.6569C3.84343 47.1571 5.87827 48 8 48L176 48C178.122 48 180.157 47.1571 181.657 45.6569C183.157 44.1566 184 42.1217 184 40V8C184 5.87827 183.157 3.84344 181.657 2.34315C180.157 0.842857 178.122 0 176 0L8 0C5.87827 0 3.84343 0.842857 2.34314 2.34315C0.84285 3.84344 0 5.87827 0 8ZM14 22C13.4696 22 12.9609 22.2107 12.5858 22.5858C12.2107 22.9609 12 23.4696 12 24C12 24.5304 12.2107 25.0391 12.5858 25.4142C12.9609 25.7893 13.4696 26 14 26L165.172 26L156.584 34.584C156.208 34.9595 155.997 35.4689 155.997 36C155.997 36.5311 156.208 37.0405 156.584 37.416C156.96 37.7915 157.469 38.0025 158 38.0025C158.531 38.0025 159.04 37.7915 159.416 37.416L171.416 25.416C171.602 25.2302 171.75 25.0095 171.851 24.7665C171.952 24.5236 172.004 24.2631 172.004 24C172.004 23.7369 171.952 23.4764 171.851 23.2335C171.75 22.9905 171.602 22.7698 171.416 22.584L159.416 10.584C159.04 10.2085 158.531 9.99747 158 9.99747C157.469 9.99747 156.96 10.2085 156.584 10.584C156.208 10.9595 155.997 11.4689 155.997 12C155.997 12.5311 156.208 13.0405 156.584 13.416L165.172 22L14 22Z" fill="#CB99FC"/>
</g>
</svg>
