<svg width="24" height="24" viewBox="0 0 24 24" fill="none" xmlns="http://www.w3.org/2000/svg">
<path d="M7.19995 5.99995C7.19995 6.9493 7.48147 7.87733 8.0089 8.66669C8.53633 9.45605 9.28598 10.0713 10.1631 10.4346C11.0402 10.7979 12.0053 10.8929 12.9364 10.7077C13.8675 10.5225 14.7228 10.0654 15.3941 9.39406C16.0654 8.72277 16.5225 7.86749 16.7077 6.93639C16.8929 6.00528 16.7979 5.04016 16.4346 4.16307C16.0713 3.28599 15.456 2.53633 14.6667 2.0089C13.8773 1.48147 12.9493 1.19995 12 1.19995C10.7269 1.19995 9.50601 1.70566 8.60584 2.60584C7.70566 3.50601 7.19995 4.72691 7.19995 5.99995ZM14.4 5.99995C14.4 6.47463 14.2592 6.93864 13.9955 7.33332C13.7318 7.728 13.3569 8.03561 12.9184 8.21726C12.4798 8.39891 11.9973 8.44644 11.5317 8.35384C11.0662 8.26123 10.6385 8.03265 10.3029 7.69701C9.96725 7.36136 9.73867 6.93372 9.64607 6.46817C9.55346 6.00261 9.60099 5.52005 9.78264 5.08151C9.96429 4.64297 10.2719 4.26814 10.6666 4.00442C11.0613 3.74071 11.5253 3.59995 12 3.59995C12.6365 3.59995 13.2469 3.85281 13.697 4.3029C14.1471 4.75298 14.4 5.36343 14.4 5.99995Z" fill="#CB99FC"/>
<path d="M12.7066 18.6988C12.3162 19.0885 11.684 19.0885 11.2936 18.6988L5.99224 13.4069C5.59965 13.015 4.9631 13.0176 4.57366 13.4126L4.29721 13.693C3.91141 14.0843 3.91364 14.7136 4.30221 15.1022L11.293 22.0929C11.6835 22.4835 12.3167 22.4835 12.7072 22.0929L19.693 15.1072C20.0835 14.7166 20.0835 14.0835 19.693 13.6929L19.4146 13.4145C19.0243 13.0242 18.3916 13.024 18.001 13.4139L12.7066 18.6988Z" fill="#CB99FC"/>
</svg>
