<svg width="202" height="172" viewBox="0 0 202 172" fill="none" xmlns="http://www.w3.org/2000/svg">
<path d="M186.36 139.76V141.76H188.36H197.32C198.679 141.76 199.8 142.881 199.8 144.24C199.8 157.919 188.599 169.12 174.92 169.12H27.08C13.4005 169.12 2.19995 157.919 2.19995 144.24C2.19995 142.881 3.32052 141.76 4.67995 141.76H13.64H15.64V139.76V45.68C15.64 39.3926 20.7925 34.24 27.08 34.24H60.68H62.68V32.24V5.36C62.68 4.00057 63.8005 2.88 65.16 2.88H92.04C93.3994 2.88 94.52 4.00057 94.52 5.36V32.24V34.24H96.52H174.92C181.207 34.24 186.36 39.3926 186.36 45.68V139.76ZM69.64 7.84H67.64V9.84V23.28V25.28H69.64H87.56H89.56V23.28V9.84V7.84H87.56H69.64ZM69.64 30.24H67.64V32.24V48.144C67.64 49.3247 67.0389 50.1443 66.0337 50.5243C55.5485 54.3411 47.9676 62.909 44.6621 73.2976L44.2294 74.6574L45.3745 75.5089C54.915 82.6031 68.3439 81.6125 76.8782 73.0782C84.4189 65.5375 95.1042 63.0186 104.751 65.5352L110.422 67.0146L106.839 62.3771C102.845 57.2089 97.6281 52.9187 91.1708 50.5261C90.2153 50.166 89.56 49.1603 89.56 48.144V32.24V30.24H87.56H69.64ZM113.272 76.0102L113.14 75.2877L112.573 74.8218C103.021 66.9848 89.1084 67.7544 80.1172 76.5025L80.1074 76.5121L80.0977 76.5218C74.426 82.1935 67.0952 85.12 59.56 85.12C54.9805 85.12 50.1588 83.8668 45.9638 81.5596L43 79.9295V83.312V83.3133V83.3146V83.3159V83.3172V83.3186V83.3199V83.3212V83.3225V83.3238V83.3251V83.3264V83.3277V83.3291V83.3304V83.3317V83.333V83.3343V83.3356V83.3369V83.3382V83.3395V83.3409V83.3422V83.3435V83.3448V83.3461V83.3474V83.3487V83.35V83.3513V83.3526V83.3539V83.3552V83.3566V83.3579V83.3592V83.3605V83.3618V83.3631V83.3644V83.3657V83.367V83.3683V83.3696V83.3709V83.3722V83.3735V83.3748V83.3761V83.3774V83.3787V83.38V83.3813V83.3826V83.3839V83.3852V83.3865V83.3878V83.3891V83.3904V83.3917V83.393V83.3943V83.3956V83.3969V83.3981V83.3994V83.4007V83.402V83.4033V83.4046V83.4059V83.4072V83.4084V83.4097V83.411V83.4123V83.4136V83.4149V83.4161V83.4174V83.4187V83.42V83.4213V83.4225V83.4238V83.4251V83.4264V83.4276V83.4289V83.4302V83.4314V83.4327V83.434V83.4352V83.4365V83.4378V83.439V83.4403V83.4416V83.4428V83.4441V83.4454V83.4466V83.4479V83.4491V83.4504V83.4516V83.4529V83.4541V83.4554V83.4566V83.4579V83.4591V83.4604V83.4616V83.4629V83.4641V83.4654V83.4666V83.4678V83.4691V83.4703V83.4716V83.4728V83.474V83.4753V83.4765V83.4777V83.479V83.4802V83.4814V83.4826V83.4839V83.4851V83.4863V83.4875V83.4887V83.49V83.4912V83.4924V83.4936V83.4948V83.496V83.4972V83.4984V83.4996V83.5008V83.502V83.5032V83.5044V83.5056V83.5068V83.508V83.5092V83.5104V83.5116V83.5128V83.514V83.5152V83.5163V83.5175V83.5187V83.5199V83.5211V83.5222V83.5234V83.5246V83.5257V83.5269V83.5281V83.5293V83.5304V83.5316V83.5327V83.5339V83.5351V83.5362V83.5374V83.5385V83.5397V83.5408V83.542V83.5431V83.5442V83.5454V83.5465V83.5477V83.5488V83.5499V83.5511V83.5522V83.5533V83.5544V83.5556V83.5567V83.5578V83.5589V83.56V83.5611V83.5623V83.5634V83.5645V83.5656V83.5667V83.5678V83.5689V83.57V83.5711V83.5722V83.5733V83.5743V83.5754V83.5765V83.5776V83.5787V83.5798V83.5808V83.5819V83.583V83.584V83.5851V83.5862V83.5872V83.5883V83.5894V83.5904V83.5915V83.5925V83.5936V83.5946V83.5957V83.5967V83.5977V83.5988V83.5998V83.6008V83.6019V83.6029V83.6039V83.6049V83.606V83.607V83.608V83.609V83.61V83.611V83.612V83.613V83.614V83.615V83.616V83.617V83.618V83.619V83.62V83.621V83.622V83.6229V83.6239V83.6249V83.6259V83.6268V83.6278V83.6287V83.6297V83.6307V83.6316V83.6326V83.6335V83.6345V83.6354V83.6364V83.6373V83.6382V83.6392V83.6401V83.641V83.6419V83.6429V83.6438V83.6447V83.6456V83.6465V83.6474V83.6483V83.6492V83.6501V83.651V83.6519V83.6528V83.6537V83.6546V83.6555V83.6563V83.6572V83.6581V83.659V83.6598V83.6607V83.6615V83.6624V83.6633V83.6641V83.665V83.6658V83.6666V83.6675V83.6683V83.6692V83.67V83.6708V83.6716V83.6725V83.6733V83.6741V83.6749V83.6757V83.6765V83.6773V83.6781V83.6789V83.6797V83.6805V83.6813V83.682V83.6828V83.6836V83.6844V83.6851V83.6859V83.6867V83.6874V83.6882V83.6889V83.6897V83.6904V83.6912V83.6919V83.6926V83.6934V83.6941V83.6948V83.6956V83.6963V83.697V83.6977V83.6984V83.6991V83.6998V83.7005V83.7012V83.7019V83.7026V83.7033V83.7039V83.7046V83.7053V83.706V83.7066V83.7073V83.7079V83.7086V83.7093V83.7099V83.7105V83.7112V83.7118V83.7125V83.7131V83.7137V83.7143V83.715V83.7156V83.7162V83.7168V83.7174V83.718V83.7186V83.7192V83.7198V83.7203V83.7209V83.7215V83.7221V83.7226V83.7232V83.7238V83.7243V83.7249V83.7254V83.726V83.7265V83.727V83.7276V83.7281V83.7286V83.7291V83.7297V83.7302V83.7307V83.7312V83.7317V83.7322V83.7327V83.7332V83.7337V83.7341V83.7346V83.7351V83.7356V83.736V83.7365V83.7369V83.7374V83.7378V83.7383V83.7387V83.7392V83.7396V83.74V83.7404V83.7409V83.7413V83.7417V83.7421V83.7425V83.7429V83.7433V83.7437V83.7441V83.7444V83.7448V83.7452V83.7456V83.7459V83.7463V83.7466V83.747V83.7473V83.7477V83.748V83.7483V83.7487V83.749V83.7493V83.7496V83.7499V83.7502V83.7505V83.7508V83.7511V83.7514V83.7517V83.752V83.7523V83.7525V83.7528V83.753V83.7533V83.7535V83.7538V83.754V83.7543V83.7545V83.7547V83.755V83.7552V83.7554V83.7556V83.7558V83.756V83.7562V83.7564V83.7566V83.7568V83.7569V83.7571V83.7573V83.7574V83.7576V83.7577V83.7579V83.758V83.7582V83.7583V83.7584V83.7585V83.7587V83.7588V83.7589V83.759V83.7591V83.7592V83.7593V83.7593V83.7594V83.7595V83.7596V83.7596V83.7597V83.7598V83.7599V83.7599V83.76C43 103.457 58.9034 119.36 78.6 119.36C98.2965 119.36 114.2 103.457 114.2 83.76C114.2 81.115 113.725 78.5015 113.287 76.0926L113.272 76.0102ZM62.68 41.2V39.2H60.68H27.08C23.5114 39.2 20.6 42.1114 20.6 45.68V139.76V141.76H22.6H179.4H181.4V139.76V45.68C181.4 42.1114 178.489 39.2 174.92 39.2H96.52H94.52V41.2V45.232V46.5135L95.6841 47.049C106.36 51.96 114.677 61.5699 117.656 73.0619L117.664 73.0933L117.673 73.1243C118.734 76.7302 119.16 80.1223 119.16 83.76C119.16 106.175 101.015 124.32 78.6 124.32C56.1845 124.32 38.04 106.175 38.04 83.76C38.04 80.8087 38.4623 77.8267 39.1088 75.0257L39.1115 75.0134C41.8872 62.6299 50.2134 52.3804 61.5332 47.0409L62.68 46.4999V45.232V41.2ZM9.60795 146.72H7.0286L7.67097 149.218C9.91567 157.947 17.8848 164.16 27.08 164.16H174.92C184.104 164.16 192.11 157.95 194.118 149.166L194.677 146.72H192.168H9.60795ZM163.96 90.48C163.96 91.8394 162.839 92.96 161.48 92.96H139.08C137.721 92.96 136.6 91.8394 136.6 90.48C136.6 89.1206 137.721 88 139.08 88H161.48C162.839 88 163.96 89.1206 163.96 90.48ZM163.96 68.08C163.96 69.4394 162.839 70.56 161.48 70.56H139.08C137.721 70.56 136.6 69.4394 136.6 68.08C136.6 66.7206 137.721 65.6 139.08 65.6H161.48C162.839 65.6 163.96 66.7206 163.96 68.08ZM163.96 112.88C163.96 114.239 162.839 115.36 161.48 115.36H139.08C137.721 115.36 136.6 114.239 136.6 112.88C136.6 111.521 137.721 110.4 139.08 110.4H161.48C162.839 110.4 163.96 111.521 163.96 112.88Z" fill="#00FF40" stroke="#6600C7" stroke-width="4"/>
</svg>
